<svg xmlns="http://www.w3.org/2000/svg" viewBox="0 0 96 96" width="96" height="96">
  <defs>
    <linearGradient id="skBg" x1="10" y1="6" x2="86" y2="92" gradientUnits="userSpaceOnUse">
      <stop offset="0" stop-color="#ff8a65"/><stop offset="0.5" stop-color="#e0559a"/><stop offset="1" stop-color="#6a5cf0"/>
    </linearGradient>
    <linearGradient id="skBrush" x1="40" y1="20" x2="70" y2="60" gradientUnits="userSpaceOnUse">
      <stop offset="0" stop-color="#fff"/><stop offset="1" stop-color="#dcdcea"/>
    </linearGradient>
  </defs>
  <circle cx="48" cy="48" r="46" fill="url(#skBg)"/>
  <path d="M19 66c10-2 14-14 24-12s8 14 20 10 10-18 14-22" fill="none" stroke="#fff" stroke-width="5" stroke-linecap="round" opacity="0.85"/>
  <g transform="rotate(40 56 38)">
    <rect x="52" y="10" width="9" height="36" rx="4.5" fill="url(#skBrush)"/>
    <rect x="51" y="42" width="11" height="7" rx="2" fill="#bcbccc"/>
    <path d="M51.5 49h10l-2 9a3 3 0 0 1-6 0Z" fill="#2a2a33"/>
  </g>
  <path d="M48 2a46 46 0 0 1 32.5 13.5A46 46 0 0 0 15.5 80.5 46 46 0 0 1 48 2Z" fill="#fff" opacity="0.14"/>
</svg>
